<svg width="63" height="36" viewBox="0 0 63 36" fill="none" xmlns="http://www.w3.org/2000/svg">
<path d="M12.9211 23.25H10.5263V21.4079H12.9211C13.1447 21.4079 13.3289 21.4868 13.4868 21.6447C13.6447 21.8158 13.7237 22.0132 13.7237 22.2368C13.7237 22.4605 13.6974 22.6447 13.6184 22.7895C13.5526 22.9474 13.4605 23.0526 13.3421 23.1316C13.2368 23.2105 13.0921 23.25 12.9211 23.25Z" fill="#00D3CF"/>
<path d="M13.8816 25.9079C13.9474 26.0395 13.9737 26.1842 13.9737 26.3421C13.9737 26.6842 13.9079 26.9342 13.7632 27.1053C13.6053 27.2763 13.4211 27.3553 13.1711 27.3553H10.5263V25.5H13.1711C13.3289 25.5 13.4737 25.5263 13.5921 25.6053C13.7105 25.6842 13.8026 25.7763 13.8816 25.9079Z" fill="#00D3CF"/>
<path d="M58.1579 0H4.17105C1.86842 0 0 1.86842 0 4.17105V31.8289C0 34.1316 1.86842 36 4.17105 36H58.1579C60.4605 36 62.3289 34.1316 62.3289 31.8289V4.17105C62.3289 1.86842 60.4605 0 58.1579 0ZM18.9605 5.92105H25.3684C26.0526 5.92105 26.6579 6.07895 27.1842 6.39474C27.6974 6.69737 28.1053 7.13158 28.4079 7.68421C28.6974 8.22368 28.8421 8.85526 28.8421 9.5921C28.8421 10.3289 28.6974 10.9868 28.3947 11.5395C28.0921 12.0921 27.6842 12.5132 27.1579 12.8289C26.6447 13.1316 26.0395 13.2763 25.3684 13.2763H22.4474V16.7895H18.9605V5.92105ZM7.07895 5.92105H16.4737V8.52632H10.5658V10.0263H15.6184V12.5263H10.5658V14.1842H16.5789V16.7895H7.07895V5.92105ZM30.2895 25.5H28.8816C28.9342 25.7368 28.9737 25.9868 28.9737 26.2895C28.9737 27.1842 28.7763 27.9079 28.3553 28.4605C27.9342 29.0263 27.3684 29.4342 26.6447 29.6842C25.9342 29.9474 25.1053 30.0789 24.1974 30.0789C23.4474 30.0789 22.75 30.0132 22.1053 29.9079C21.4605 29.8026 20.8816 29.6053 20.3947 29.3421C19.9079 29.0658 19.5263 28.6974 19.25 28.2237C18.9605 27.7368 18.8289 27.1316 18.8289 26.4079V26.3289C18.8289 26.3289 18.8289 26.25 18.8421 26.2105H22.1447C22.1447 26.2105 22.1316 26.2895 22.1316 26.3289V26.4211C22.1316 26.7368 22.1974 26.9868 22.3421 27.1579C22.5 27.3158 22.6974 27.4342 22.9737 27.4868C23.2368 27.5526 23.5395 27.5789 23.8816 27.5789C24 27.5789 24.1447 27.5789 24.2763 27.5658C24.4211 27.5658 24.5658 27.5526 24.6974 27.5263C24.8289 27.5 24.9474 27.4605 25.0526 27.4079C25.1711 27.3553 25.25 27.2763 25.3158 27.1974C25.3816 27.1053 25.4079 26.9868 25.4079 26.8553C25.4079 26.6579 25.3158 26.5 25.1447 26.3816C24.9605 26.2632 24.7237 26.1579 24.4211 26.0789C24.1053 26 23.7632 25.9211 23.3947 25.8421C23.0132 25.7632 22.6184 25.6842 22.2105 25.5789C22.1184 25.5526 22.0263 25.5263 21.9342 25.5H17.1711C17.1711 25.5 17.2105 25.5395 17.2368 25.5789C17.4211 25.9474 17.5132 26.4211 17.5132 27C17.5132 27.5789 17.3684 28.0789 17.0921 28.5132C16.8026 28.9474 16.4211 29.2763 15.9474 29.5263C15.4737 29.7632 14.9474 29.8816 14.3553 29.8816H7.02632V25.5H5.71053V23.25H7.02632V19.0263H14.2632C14.8158 19.0263 15.3158 19.1316 15.7632 19.3553C16.2105 19.5921 16.5789 19.8947 16.8553 20.3026C17.1316 20.6974 17.2632 21.1579 17.2632 21.6842C17.2632 22.2105 17.1842 22.6447 17.0132 22.9868C16.9605 23.0789 16.8947 23.1711 16.8421 23.25H19.1316C19.0526 22.9605 19 22.6579 19 22.3026C19 21.6711 19.1316 21.1316 19.3947 20.6974C19.6579 20.25 20.0132 19.8947 20.4737 19.6184C20.9342 19.3421 21.4605 19.1447 22.0395 19.0263C22.6184 18.8947 23.2368 18.8289 23.8816 18.8289C24.5263 18.8289 25.1447 18.8947 25.7237 19.0263C26.2895 19.1579 26.8026 19.3684 27.2368 19.6316C27.6842 19.9079 28.0263 20.2632 28.2895 20.6842C28.5395 21.1053 28.6711 21.6053 28.6842 22.1842V22.3684H25.4079V22.3026C25.4079 22.1184 25.3684 21.9342 25.2632 21.7632C25.1711 21.6053 25.0263 21.4605 24.8158 21.3553C24.6184 21.25 24.3421 21.1974 24 21.1974C23.6842 21.1974 23.4211 21.2368 23.2105 21.2895C22.9868 21.3553 22.8289 21.4474 22.7237 21.5526C22.6184 21.6711 22.5658 21.7895 22.5658 21.9079C22.5658 22.1053 22.6579 22.2763 22.8421 22.3947C23.0132 22.5263 23.2632 22.6316 23.5658 22.7105C23.8684 22.8026 24.2105 22.8816 24.5921 22.9474C24.9605 23.0263 25.3684 23.1053 25.7763 23.1974C25.8421 23.2105 25.8947 23.2368 25.9605 23.25H30.2895V25.5ZM25.0263 10.4605C25.2105 10.2632 25.3026 9.98684 25.3026 9.61842C25.3026 9.36842 25.2632 9.1579 25.1842 9C25.1053 8.82895 24.9868 8.71053 24.8289 8.61842C24.6579 8.53947 24.4605 8.5 24.1974 8.5H22.4474V10.7368H24.1974C24.5658 10.7368 24.8421 10.6447 25.0263 10.4605Z" fill="#00D3CF"/>
</svg>
